# AST/ASF file generated using VICON BodyLanguage
# -----------------------------------------------
:version 1.10
:name VICON
:units
  mass 1.0
  length 0.45
  angle deg
:documentation
   .ast/.asf automatically generated from VICON data using
   VICON BodyBuilder and BodyLanguage model FoxedUp or BRILLIANT.MOD
:root
   order TX TY TZ RX RY RZ
   axis XYZ
   position 0 0 0  
   orientation 0 0 0 
:bonedata
  begin
     id 1 
     name lhipjoint
     direction 0.660183 -0.676772 0.325788 
     length 2.75133 
     axis 0 0 0  XYZ
  end
  begin
     id 2 
     name lfemur
     direction 0.34202 -0.939693 0  
     length 7.70317  
     axis 0 0 20  XYZ
    dof rx ry rz
    limits (-160.0 20.0)
           (-70.0 70.0)
           (-60.0 70.0)
  end
  begin
     id 3 
     name ltibia
     direction 0.342105 -0.939662 0   
     length 7.18701   
     axis 0 0 20   XYZ
    dof rx
    limits (-10.0 170.0)
  end
  begin
     id 4 
     name lfoot
     direction 0.14163 -0.389126 0.910232   
     length 2.41719   
     axis -90 7.62852e-016 20   XYZ
    dof rx rz
    limits (-45.0 90.0)
           (-70.0 20.0)
  end
  begin
     id 5 
     name ltoes
     direction 1.53533e-011 -4.21926e-011 1   
     length 1.18611   
     axis -90 7.62852e-016 20   XYZ
    dof rx
    limits (-90.0 20.0)
  end
  begin
     id 6 
     name rhipjoint
     direction -0.6658 -0.67229 0.323631   
     length 2.76968  
     axis 0 0 0  XYZ 
  end
  begin
     id 7 
     name rfemur
     direction -0.34202 -0.939693 0   
     length 7.92547   
     axis 0 0 -20   XYZ
    dof rx ry rz
    limits (-160.0 20.0)
           (-70.0 70.0)
           (-70.0 60.0)
  end
  begin
     id 8 
     name rtibia
     direction -0.342022 -0.939692 0   
     length 7.22641   
     axis 0 0 -20   XYZ
    dof rx
    limits (-10.0 170.0)
 end
 begin
     id 9 
     name rfoot
     direction -0.105675 -0.29034 0.951071   
     length 2.48149  
     axis -90 -7.62852e-016 -20   XYZ
    dof rx rz
    limits (-45.0 90.0)
           (-20.0 70.0)
  end
  begin
     id 10 
     name rtoes
     direction -1.5349e-011 -4.21859e-011 1   
     length 1.23343   
     axis -90 -7.62852e-016 -20   XYZ
    dof rx
    limits (-90.0 20.0)
  end
  begin
     id 11 
     name lowerback
     direction 0.0104173 0.993624 -0.112266   
     length 2.00527   
     axis 0 0 0   XYZ
    dof rx ry rz
    limits (-20.0 45.0)
           (-30.0 30.0)
           (-30.0 30.0)
  end
  begin
     id 12 
     name upperback
     direction 0.00733149 0.999856 -0.0152913   
     length 2.01385   
     axis 0 0 0   XYZ
    dof rx ry rz
    limits (-20.0 45.0)
           (-30.0 30.0)
           (-30.0 30.0)
  end
  begin
     id 13 
     name thorax
     direction 0.0026304 0.999318 0.036841   
     length 2.03734   
     axis 0 0 0   XYZ
    dof rx ry rz
    limits (-20.0 45.0)
           (-30.0 30.0)
           (-30.0 30.0)
  end
  begin
     id 14 
     name lowerneck
     direction 0.0293154 0.998757 0.0403082   
     length 1.65303   
     axis 0 0 0   XYZ
    dof rx ry rz
    limits (-20.0 45.0)
           (-30.0 30.0)
           (-30.0 30.0)
  end
  begin
     id 15 
     name upperneck
     direction -0.0376619 0.998184 -0.0470083   
     length 1.60926   
     axis 0 0 0   XYZ
    dof rx ry rz
    limits (-20.0 45.0)
           (-30.0 30.0)
           (-30.0 30.0)
  end
  begin
     id 16
     name head
     direction -0.0170133 0.999635 -0.0209778  
     length 1.73625  
     axis 0 0 0   XYZ
    dof rx ry rz
    limits (-20.0 45.0)
           (-30.0 30.0)
           (-30.0 30.0)
  end
  begin
     id 17 
     name lclavicle
     direction 0.919857 0.39181 -0.0186333  
     length 3.75313  
     axis 0 0 0   XYZ
    dof ry rz
    limits (-20.0 10.0)
           (0.0 20.0)
  end
  begin
     id 18 
     name lhumerus
     direction 1 -4.48988e-011 1.44029e-027   
     length 5.49313   
     axis 180 -30 -90   XYZ
    dof rx ry rz
    limits (-60.0 90.0)
           (-90.0 90.0)
           (-90.0 90.0)
  end
  begin
     id 19
     name lradius
     direction 1 -4.48924e-011 7.46281e-027   
     length 3.29037   
     axis 180 -30 -90   XYZ
    dof rx
    limits (-10.0 170.0)
  end
  begin
     id 20
     name lwrist
     direction 1 -4.48955e-011 2.19879e-026   
     length 1.64519   
     axis -1.34358e-014 90 90   XYZ
    dof ry
    limits (-180.0 0.0)
 end
  begin
     id 21 
     name lhand
     direction 1 -4.48978e-011 4.39747e-026   
     length 0.729656   
     axis -2.80598e-014 90 90   XYZ
    dof rx rz
    limits (-90.0 90.0)
           (-45.0 45.0)
  end
  begin
     id 22 
     name lfingers
     direction 1 -4.49071e-011 8.79411e-026   
     length 0.588268   
     axis -5.61193e-014 90 90   XYZ
    dof rx
    limits (0.0 90.0)
  end
  begin
     id 23
     name lthumb
     direction 0.707107 -6.34817e-011 0.707107   
     length 0.844638   
     axis -90 45 -9.86923e-015   XYZ
    dof rx rz
    limits (-45.0 45.0)
           (-45.0 45.0)
  end
  begin
     id 24 
     name rclavicle
     direction -0.919898 0.388279 0.0550233   
     length 3.7171  
     axis 0 0 0   XYZ 
    dof ry rz
    limits (-10.0 20.0)
           (-20.0 0.0)
  end
  begin
     id 25 
     name rhumerus
     direction -1 -4.48968e-011 9.98372e-028  
     length 5.23684   
     axis 180 30 90   XYZ
    dof rx ry rz
    limits (-90.0 60.0)
           (-90.0 90.0)
           (-90.0 90.0)
  end
  begin
     id 26 
     name rradius
     direction -1 -4.48956e-011 1.01023e-026   
     length 3.38251   
     axis 180 30 90   XYZ
    dof rx
    limits (-10.0 170.0)
  end
  begin
     id 27 
     name rwrist
     direction -1 -4.4892e-011 2.19886e-026   
     length 1.69126   
     axis -1.34358e-014 -90 -90   XYZ
    dof ry
    limits (-180.0 0.0)
  end
  begin
     id 28
     name rhand
     direction -1 -4.49024e-011 4.39727e-026   
     length 0.691454   
     axis -2.80598e-014 -90 -90   XYZ
    dof rx rz
    limits (-90.0 90.0)
           (-45.0 45.0)
  end
  begin
     id 29
     name rfingers
     direction -1 -4.49097e-011 8.79388e-026   
     length 0.557468   
     axis -5.61193e-014 -90 -90   XYZ
    dof rx
    limits (0.0 90.0)
  end
  begin
     id 30
     name rthumb
     direction -0.707107 -6.34938e-011 0.707107   
     length 0.800416   
     axis -90 -45 9.86923e-015   XYZ
    dof rx rz
    limits (-45.0 45.0)
           (-45.0 45.0)
  end
:hierarchy
  begin
    root lhipjoint rhipjoint lowerback
    lhipjoint lfemur
    lfemur ltibia
    ltibia lfoot
    lfoot ltoes
    rhipjoint rfemur
    rfemur rtibia
    rtibia rfoot
    rfoot rtoes
    lowerback upperback
    upperback thorax
    thorax lowerneck lclavicle rclavicle
    lowerneck upperneck
    upperneck head
    lclavicle lhumerus
    lhumerus lradius
    lradius lwrist
    lwrist lhand lthumb
    lhand lfingers
    rclavicle rhumerus
    rhumerus rradius
    rradius rwrist
    rwrist rhand rthumb
    rhand rfingers
  end

#!OML:ASF H:\BabyWalks\Project 1\Capture day 1\Session 1\baby.ASF
:FULLY-SPECIFIED
:DEGREES
163
root -28.3233 16.6267 -4.38838 50.5165 84.7859 70.2781
lowerback -4.26316 -2.54278 5.70143
upperback 2.08302 -3.80162 3.82773
thorax 4.44732 -1.72996 0.483062
lowerneck 6.9621 -1.14509 7.36659
upperneck 9.4803 0.478346 -18.6366
head 1.56613 0.42804 -6.97328
rclavicle -3.33958e-014 2.8625e-014
rhumerus -77.2989 60.2174 -109.85
rradius 88.935
rwrist -2.73218
rhand -11.5328 8.28945
rfingers 7.12502
rthumb 14.5072 -21.1834
lclavicle -3.33958e-014 2.8625e-014
lhumerus -79.9864 -52.0162 120.823
lradius 78.3328
lwrist 12.7344
lhand -14.6058 -10.7763
lfingers 7.12502
lthumb 11.5449 18.8857
rfemur 19.0082 8.1163 6.97391
rtibia 33.7841
rfoot -28.683 -17.7256
rtoes -6.428
lfemur 21.5407 9.81555 -21.8099
ltibia 30.1885
lfoot -29.5171 -2.45075
ltoes -1.45368
164
root -28.339 16.6284 -4.42896 51.8212 84.4952 71.4378
lowerback -4.07115 -2.62797 5.78994
upperback 2.09577 -3.90285 3.9317
thorax 4.3505 -1.77897 0.543788
lowerneck 6.89982 -1.13418 7.43578
upperneck 9.31758 0.497216 -19.0111
head 1.52665 0.439627 -7.10603
rclavicle 7.95139e-015 3.49861e-014
rhumerus -77.1262 60.4629 -109.685
rradius 89.0222
rwrist -2.44762
rhand -11.2585 8.43615
rfingers 7.12502
rthumb 14.7714 -21.0175
lclavicle 7.95139e-015 3.49861e-014
lhumerus -80.2655 -52.0474 121.282
lradius 78.2142
lwrist 12.8192
lhand -15.0391 -10.759
lfingers 7.12502
lthumb 11.1271 18.926
rfemur 18.6239 8.1743 6.61387
rtibia 34.0359
rfoot -28.8307 -18.2914
rtoes -5.96569
lfemur 21.3144 10.0486 -22.2517
ltibia 30.1229
lfoot -29.3205 -2.56759
ltoes -1.67185
165
root -28.3549 16.6304 -4.46813 52.7548 84.1829 72.2018
lowerback -3.88691 -2.69373 5.87159
upperback 2.10672 -3.9778 4.02525
thorax 4.25676 -1.8152 0.599494
lowerneck 6.83304 -1.12937 7.49216
upperneck 9.14523 0.500887 -19.347
head 1.48387 0.44358 -7.2239
rclavicle -8.74653e-015 -1.27222e-014
rhumerus -77.0039 60.6496 -109.543
rradius 89.1109
rwrist -2.2089
rhand -11.034 8.55605
rfingers 7.12502
rthumb 14.9878 -20.8816
lclavicle -8.74653e-015 -1.27222e-014
lhumerus -80.4962 -52.104 121.687
lradius 78.1202
lwrist 12.8949
lhand -15.3598 -10.7375
lfingers 7.12502
lthumb 10.8177 18.9639
rfemur 18.2302 8.29714 6.24762
rtibia 34.251
rfoot -28.9726 -18.7758
rtoes -5.61639
lfemur 21.0717 10.2627 -22.7196
ltibia 30.0346
lfoot -29.1171 -2.64963
ltoes -1.96125
166
root -28.3708 16.6329 -4.50628 53.2737 83.8553 72.5227
lowerback -3.71434 -2.73718 5.96768
upperback 2.1171 -4.02424 4.10771
thorax 4.16821 -1.83677 0.637464
lowerneck 6.75917 -1.12898 7.53871
upperneck 8.96126 0.49169 -19.6476
head 1.43783 0.441004 -7.32838
rclavicle -3.02153e-014 5.08889e-014
rhumerus -76.9416 60.7828 -109.435
rradius 89.2037
rwrist -2.02673
rhand -10.879 8.62893
rfingers 7.12502
rthumb 15.1371 -20.7975
lclavicle -3.02153e-014 5.08889e-014
lhumerus -80.675 -52.1824 122.028
lradius 78.047
lwrist 12.9605
lhand -15.5965 -10.7228
lfingers 7.12502
lthumb 10.5894 18.9904
rfemur 17.8234 8.49081 5.87789
rtibia 34.4231
rfoot -29.0913 -19.1541
rtoes -5.41143
lfemur 20.8123 10.4829 -23.1901
ltibia 29.9226
lfoot -28.9141 -2.70934
ltoes -2.33632
167
root -28.3867 16.6359 -4.5436 53.4049 83.5173 72.432
lowerback -3.56104 -2.75741 6.0861
upperback 2.13769 -4.04274 4.18032
thorax 4.09995 -1.8432 0.653794
lowerneck 6.67669 -1.13191 7.58877
upperneck 8.75761 0.471507 -19.9285
head 1.38644 0.4333 -7.42685
rclavicle -2.62396e-014 -2.54444e-014
rhumerus -76.9109 60.8722 -109.341
rradius 89.302
rwrist -1.91578
rhand -10.8226 8.64973
rfingers 7.12502
rthumb 15.1914 -20.7726
lclavicle -2.62396e-014 -2.54444e-014
lhumerus -80.7815 -52.2839 122.286
lradius 77.9841
lwrist 12.9925
lhand -15.7698 -10.7424
lfingers 7.12502
lthumb 10.4222 18.9793
rfemur 17.4064 8.75018 5.50193
rtibia 34.5478
rfoot -29.1772 -19.4012
rtoes -5.3417
lfemur 20.5411 10.6747 -23.6756
ltibia 29.7931
lfoot -28.7216 -2.73667
ltoes -2.68576
168
root -28.4027 16.6399 -4.58025 53.1694 83.1801 71.9479
lowerback -3.41185 -2.75784 6.24638
upperback 2.15996 -4.03666 4.24382
thorax 4.03313 -1.83608 0.639076
lowerneck 6.59053 -1.133 7.64005
upperneck 8.53179 0.447282 -20.1895
head 1.32914 0.424256 -7.51892
rclavicle -7.15625e-015 3.18055e-015
rhumerus -76.941 60.923 -109.296
rradius 89.4071
rwrist -1.86502
rhand -10.7816 8.67385
rfingers 7.12502
rthumb 15.2309 -20.7455
lclavicle -7.15625e-015 3.18055e-015
lhumerus -80.832 -52.3941 122.469
lradius 77.9226
lwrist 12.9682
lhand -15.8896 -10.7823
lfingers 7.12502
lthumb 10.3067 18.9451
rfemur 16.9737 9.0584 5.12403
rtibia 34.6232
rfoot -29.2299 -19.5039
rtoes -5.40068
lfemur 20.2531 10.8544 -24.151
ltibia 29.6518
lfoot -28.544 -2.74952
ltoes -2.99333
169
root -28.4189 16.6449 -4.61652 52.5994 82.848 71.1033
lowerback -3.26891 -2.73961 6.45867
upperback 2.18915 -4.00832 4.30018
thorax 3.97405 -1.81602 0.589321
lowerneck 6.49883 -1.13128 7.69378
upperneck 8.27516 0.41954 -20.4404
head 1.26374 0.414374 -7.60787
rclavicle 6.36111e-015 -6.36111e-015
rhumerus -77.019 60.9446 -109.288
rradius 89.5234
rwrist -1.86023
rhand -10.7633 8.70687
rfingers 7.12502
rthumb 15.2485 -20.7111
lclavicle 6.36111e-015 -6.36111e-015
lhumerus -80.8195 -52.5113 122.572
lradius 77.8527
lwrist 12.863
lhand -15.979 -10.8613
lfingers 7.12502
lthumb 10.2204 18.8705
rfemur 16.5191 9.39009 4.73806
rtibia 34.6521
rfoot -29.2307 -19.4609
rtoes -5.60487
lfemur 19.9433 11.0213 -24.6149
ltibia 29.5061
lfoot -28.3627 -2.71865
ltoes -3.28128
170
root -28.4355 16.651 -4.65247 51.69 82.5271 69.8941
lowerback -3.12359 -2.70485 6.73053
upperback 2.22444 -3.95973 4.35416
thorax 3.91703 -1.78388 0.505569
lowerneck 6.40293 -1.12577 7.74869
upperneck 7.98786 0.390014 -20.6849
head 1.1903 0.40466 -7.6948
rclavicle 3.81667e-014 -6.36111e-014
rhumerus -77.1402 60.946 -109.318
rradius 89.655
rwrist -1.90118
rhand -10.882 8.68082
rfingers 7.12502
rthumb 15.1341 -20.7458
lclavicle 3.81667e-014 -6.36111e-014
lhumerus -80.7474 -52.6322 122.607
lradius 77.7672
lwrist 12.6688
lhand -16.0453 -10.9784
lfingers 7.12502
lthumb 10.1565 18.7565
rfemur 16.0365 9.72524 4.35037
rtibia 34.6387
rfoot -29.1803 -19.2773
rtoes -5.90073
lfemur 19.6089 11.1776 -25.0547
ltibia 29.3617
lfoot -28.1902 -2.65202
ltoes -3.53817
171
root -28.4527 16.6581 -4.68822 50.5295 82.2117 68.4097
lowerback -2.96831 -2.65776 7.05398
upperback 2.26423 -3.89494 4.40594
thorax 3.85686 -1.74212 0.392486
lowerneck 6.30647 -1.11345 7.80531
upperneck 7.66677 0.363081 -20.9299
head 1.10789 0.397766 -7.78213
rclavicle 1.43125e-014 -3.49861e-014
rhumerus -77.3076 60.9381 -109.392
rradius 89.804
rwrist -1.95912
rhand -11.0956 8.62708
rfingers 7.12502
rthumb 14.9284 -20.815
lclavicle 1.43125e-014 -3.49861e-014
lhumerus -80.6147 -52.7467 122.57
lradius 77.6647
lwrist 12.3831
lhand -16.0797 -11.1379
lfingers 7.12502
lthumb 10.1233 18.5986
rfemur 15.5196 10.0387 3.94898
rtibia 34.5913
rfoot -29.083 -18.9735
rtoes -6.358
lfemur 19.2471 11.3273 -25.475
ltibia 29.2236
lfoot -28.0212 -2.54772
ltoes -3.77031
172
root -28.4708 16.6662 -4.72378 49.1544 81.903 66.6909
lowerback -2.79658 -2.60215 7.42341
upperback 2.31094 -3.81787 4.46069
thorax 3.79339 -1.69281 0.258543
lowerneck 6.21628 -1.09433 7.85805
upperneck 7.30441 0.337568 -21.1776
head 1.01309 0.393831 -7.86958
rclavicle -1.74931e-014 6.36111e-015
rhumerus -77.5109 60.9328 -109.498
rradius 89.9713
rwrist -2.01486
rhand -11.4002 8.54468
rfingers 7.12502
rthumb 14.635 -20.9189
lclavicle -1.74931e-014 6.36111e-015
lhumerus -80.4161 -52.8522 122.468
lradius 77.5492
lwrist 12.0297
lhand -16.074 -11.3184
lfingers 7.12502
lthumb 10.1287 18.4178
rfemur 14.9681 10.3192 3.54153
rtibia 34.5183
rfoot -28.9294 -18.5805
rtoes -6.87075
lfemur 18.8555 11.4917 -25.8641
ltibia 29.0931
lfoot -27.8527 -2.40241
ltoes -4.00158
